<?xml version="1.0" encoding="utf-8"?>
<!-- Generator: Adobe Illustrator 26.2.1, SVG Export Plug-In . SVG Version: 6.00 Build 0)  -->
<svg version="1.1" id="Capa_1" xmlns="http://www.w3.org/2000/svg" xmlns:xlink="http://www.w3.org/1999/xlink" x="0px" y="0px"
	 viewBox="0 0 404.43 201.95" style="enable-background:new 0 0 404.43 201.95;" xml:space="preserve">
<style type="text/css">
	.st0{fill:#31BC30;}
	.st1{fill:#039203;}
	.st2{fill:#0CA80B;}
	.st3{fill:#FEFEFE;}
	.st4{fill:#FDFEFD;}
	.st5{fill:#FFFFFF;}
	.st6{fill:none;}
</style>
<g>
	<path class="st0" d="M201.03,36.78c-5.03,5.88-9.78,11.29-14.32,16.78c-1.84,2.22-3.81,2.59-7.07,1.26
		c-6.27-2.55-12.68-4.97-19.13-7.32c-3.1-1.13-3.7-2.44-1.9-4.49c8.09-9.27,16.13-18.56,24.09-27.88c1.58-1.85,3.63-2.19,6.45-1.67
		c10.42,1.93,20.83,3.87,31.3,5.67c2.44,0.42,3.71,1.39,4.83,2.72c3.36,3.97,6.93,7.87,10.12,11.91c1.6,2.03,2.93,2.67,6.15,1.23
		c2.18-0.98,4.78-3.23,7.68-1.48c2.67,1.61,0.16,3.74-0.68,5.51c-2.68,5.65-5.74,11.21-8.44,16.85c-1.01,2.11-2.48,3.11-5.98,2.63
		c-9.88-1.34-19.8-2.53-29.7-3.83c-1.73-0.23-3.89-0.26-4.41-1.78c-0.57-1.65,1.23-2.38,3-3.15c6.63-2.88,6.62-2.9,2.63-7.61
		C204.22,40.45,202.75,38.77,201.03,36.78z"/>
	<path class="st1" d="M252.43,97.18c-5.06-5.94-9.44-11.34-14.21-16.58c-2.31-2.54-1.49-3.92,2.18-5.25
		c6.28-2.28,12.42-4.74,18.56-7.2c2.98-1.2,4.95-0.85,6.71,1.23c7.79,9.22,15.66,18.41,23.62,27.56c1.67,1.92,1.5,3.24-0.95,4.84
		c-7.66,4.98-15.15,10.08-22.58,15.21c-1.97,1.36-4.06,1.84-6.82,1.79c-6.6-0.11-13.21,0.09-19.81-0.09
		c-3.53-0.1-4.83,0.53-4.71,3.05c0.08,1.76,1.88,4.37-1.93,5.21c-3.53,0.77-4.81-1.82-6.66-3.2c-4.94-3.69-9.52-7.61-14.57-11.23
		c-1.86-1.34-4.47-2.56-4.49-4.6c-0.01-1.11,0.83-2.14,1.86-3c1.5-1.25,3.28-2.35,4.81-3.58c1.92-1.53,3.91-3.03,5.85-4.55
		c2.8-2.19,5.59-4.39,8.43-6.56c1.27-0.97,2.65-2.33,5-1.72c2.43,0.63,1.79,2.24,1.83,3.55c0.15,5.11,0.14,5.11,7.61,5.11
		C245.24,97.18,248.33,97.18,252.43,97.18z"/>
	<path class="st2" d="M149.14,97c9.92,0,18.86,0.16,27.78-0.06c4.94-0.12,6.45,1.14,6.24,4.33c-0.3,4.57-0.2,9.16-0.01,13.74
		c0.1,2.56-1.33,3.53-5.16,3.51c-15.6-0.09-31.2-0.09-46.79-0.01c-3.54,0.02-5.21-0.86-6.06-3.22c-2.34-6.48-4.81-12.94-7.7-19.31
		c-1.21-2.66-0.54-4.72,1.51-6.95c3.28-3.57,6.16-7.3,9.45-10.87c1.6-1.73,1.56-2.67-1.34-3.73c-2.51-0.92-6.89-1.29-6.09-4.01
		c0.78-2.64,5.02-1.91,7.87-2.33c8.23-1.2,16.53-2.18,24.74-3.41c4.21-0.63,6.33,0.21,7.64,3.07c2.85,6.24,6.18,12.39,9.37,18.56
		c0.62,1.2,1.45,2.41-0.41,3.36c-1.75,0.9-3.42,0.24-5.11-0.34c-7.26-2.5-7.27-2.48-11.51,2.48C152.29,93.29,151.02,94.79,149.14,97
		z"/>
	<path class="st3" d="M211.06,51.04c7.78-1.45,6.6-3.51,4.03-6.4c-7.43-8.34-14.41-16.85-22.22-26.07c9.25,1.64,17.4,3.1,25.56,4.54
		c1.7,0.3,2.02,1.36,2.72,2.17c4.1,4.68,8.14,9.37,12.15,14.08c1.21,1.42,1.95,2.95,5.25,1.56c1.76-0.75,2.62,0.12,1.94,1.46
		c-1.76,3.5-3.48,7.01-5.24,10.51c-0.45,0.9-1.28,1.5-2.87,1.27C225.88,53.2,219.37,52.25,211.06,51.04z"/>
	<path class="st3" d="M186.5,19.74c0.39,0.42,0.84,0.82,1.16,1.25c2.97,3.94,10.1,7.97,8.71,11.54c-2.39,6.12-8.9,11.5-13.66,17.2
		c-0.68,0.81-1.53,0.98-2.68,0.48c-0.31-0.13-0.61-0.27-0.93-0.4c-4.55-1.84-11.28-3.05-12.93-5.71c-1.24-1.98,4-5.85,6.49-8.83
		c4.23-5.05,8.57-10.07,12.89-15.09C185.71,20,186.13,19.9,186.5,19.74z"/>
	<path class="st4" d="M228.38,119.43c-5.04-3.9-9.27-7.27-13.66-10.53c-1.41-1.05-0.77-1.68,0.29-2.49
		c4.22-3.22,8.41-6.47,13.72-10.56c-1.86,6.45,3.71,5.55,8.51,5.54c13.87-0.04,27.74-0.01,42.58-0.01
		c-6.68,4.54-12.64,8.61-18.63,12.66c-1.18,0.8-2.77,0.5-4.19,0.51c-7.33,0.03-14.66,0.01-22,0.01
		C228.91,114.56,228.91,114.56,228.38,119.43z"/>
	<path class="st4" d="M282.33,97.22c-7.41,0-13.78-0.03-20.15,0.02c-1.89,0.02-2.99-0.48-3.91-1.58
		c-4.16-4.94-8.32-9.88-12.69-14.73c-1.56-1.73-0.94-2.52,1.52-3.37c4.53-1.57,9.31-4.99,13.25-4.56c4.2,0.46,5.58,5.32,8.19,8.25
		C273.03,86.31,277.36,91.45,282.33,97.22z"/>
	<path class="st3" d="M129.94,111c-2.42-5.98-4.56-11.34-6.75-16.68c-0.56-1.36,0.4-2.39,1.33-3.46c3.5-4.05,6.95-8.13,10.48-12.17
		c2.17-2.48,5.72-5.02-2.71-6.88c7.52-1.03,13.5-1.87,19.51-2.64c1.58-0.21,3.34-0.49,4.1,1.02c2.08,4.17,4.18,8.34,6.08,12.93
		c-5.24-3.04-7.32-1.27-9.79,1.78C145.25,93.46,137.81,101.82,129.94,111z"/>
	<path class="st3" d="M134.18,114.42c3.81-4.45,7.28-8.46,10.67-12.51c0.82-0.97,2.06-0.87,3.31-0.87
		c8.62-0.01,17.25,0.05,25.87-0.04c2.41-0.02,3.2,0.47,3.11,2.1c-0.17,3.09-0.1,6.19-0.02,9.28c0.03,1.28-0.19,2.07-2.6,2.06
		C161.35,114.39,148.19,114.42,134.18,114.42z"/>
	<g>
		<g>
			<polygon points="25.93,149.33 25.93,159.54 53.15,159.54 53.15,167.75 25.93,167.75 25.93,178.21 58.67,178.21 58.67,186.18 
				12.32,186.18 12.32,141.61 58.67,141.61 58.67,149.33 			"/>
			<path d="M102.61,176.15l6.44,4.36c-5.01,3.72-12.23,6.04-20.25,6.04c-15.19,0-27.51-8.34-27.51-18.61
				c0-10.28,12.32-18.62,27.51-18.62c8.62,0,16.32,2.69,21.33,6.89l-6.25,4.23c-3.37-3.17-8.86-5.25-15.08-5.25
				c-10.27,0-18.59,5.63-18.59,12.57s8.32,12.57,18.59,12.57C94.27,180.32,99.19,178.71,102.61,176.15z"/>
			<path class="st5" d="M116.29,167.94c0,4.84-2.74,9.26-7.24,12.57l-6.44-4.36c-3.41,2.56-8.34,4.17-13.81,4.17
				c-10.27,0-18.59-5.63-18.59-12.57s8.32-12.57,18.59-12.57c6.22,0,11.71,2.08,15.08,5.25l6.25-4.23
				C113.97,159.42,116.29,163.5,116.29,167.94z"/>
			<line class="st6" x1="102.61" y1="176.15" x2="101.5" y2="175.41"/>
			<line class="st6" x1="109.78" y1="181.01" x2="109.05" y2="180.51"/>
			<line class="st6" x1="103.88" y1="160.44" x2="102.93" y2="161.08"/>
			<line class="st6" x1="111.21" y1="155.48" x2="110.13" y2="156.21"/>
			<ellipse cx="134.21" cy="168.44" rx="27.5" ry="18.61"/>
			<ellipse class="st5" cx="134.21" cy="168.44" rx="17.34" ry="11.74"/>
			<polygon points="213.47,186.37 200.92,186.37 227.33,141.61 240.39,141.61 266.32,186.18 253.36,186.18 233.86,152.44 
				222.55,171.24 241.26,171.3 241.31,179.46 217.61,179.5 213.54,186.32 			"/>
			<path d="M303,158.45v-7.7c-8.85,0.56-15.73,2.3-19.59,5.84v-5.23l-12.42-0.05l0.07,35.06c0,0,12.35,0,12.35,0v-19.38
				C287.07,161.13,294.44,159.17,303,158.45z"/>
			<path d="M311.2,146.87v28.11c0.54,3.3,1.32,8.8,18.42,11.39h13.31l-0.14-8.5c0,0-11.04,0.09-11.04,0.09c-5.38,0-8-1.68-8.83-4.76
				v-11.58h13.38v-7.75h-13.38v-7h-12.55H311.2z"/>
		</g>
		<path d="M388.87,180.11c-2.29,2.98-5.77,4.94-10.68,5.88c-0.91,0.18-1.88,0.32-2.9,0.41c-0.04,0.01-0.06,0.01-0.09,0.01
			c-2.74,0.35-5.45,0.6-8.04,0.42c-9.68-0.12-16.64-3.53-18.89-7.75l8.28-5.34c5.01,3.83,9.57,5.68,13.64,5.53
			c2.49-0.07,4.82-0.92,6.94-2.5c1.15-1.52,0.09-2.82-4.17-3.82c-2.74-0.64-6.83-1.17-12.51-1.52c-6.81-0.97-10.94-3.58-12.6-7.7
			c-1.04-9.71,8.28-13.14,16.42-13.52l0.02,0.01c15.08-0.41,21.85,3.8,25.85,7.18l-8.86,6c-5.17-5.84-20.06-6.58-20.83-2.57
			l0.09-0.15c-1.1,3.42,8.62,2.44,15.86,4.4C390.4,167.69,390.68,173.54,388.87,180.11z"/>
	</g>
</g>
</svg>
